<?xml version="1.0" encoding="UTF-8" standalone="no"?>
<svg
   xmlns:dc="http://purl.org/dc/elements/1.1/"
   xmlns:cc="http://creativecommons.org/ns#"
   xmlns:rdf="http://www.w3.org/1999/02/22-rdf-syntax-ns#"
   xmlns:svg="http://www.w3.org/2000/svg"
   xmlns="http://www.w3.org/2000/svg"
   xmlns:sodipodi="http://sodipodi.sourceforge.net/DTD/sodipodi-0.dtd"
   xmlns:inkscape="http://www.inkscape.org/namespaces/inkscape"
   width="210px"
   height="100px"
   viewBox="0 0 210 297"
   version="1.1"
   id="svg1033"
   inkscape:version="1.0.2-2 (e86c870879, 2021-01-15)"
   sodipodi:docname="Fitas.svg">
  <defs
     id="defs1027" />
  <sodipodi:namedview
     id="base"
     pagecolor="#ffffff"
     bordercolor="#666666"
     borderopacity="1.0"
     inkscape:pageopacity="0.0"
     inkscape:pageshadow="2"
     inkscape:zoom="1.4"
     inkscape:cx="531.83427"
     inkscape:cy="538.21857"
     inkscape:document-units="mm"
     inkscape:current-layer="layer1"
     inkscape:document-rotation="0"
     showgrid="false"
     inkscape:window-width="2400"
     inkscape:window-height="1261"
     inkscape:window-x="2391"
     inkscape:window-y="-9"
     inkscape:window-maximized="1" />
  <metadata
     id="metadata1030">
    <rdf:RDF>
      <cc:Work
         rdf:about="">
        <dc:format>image/svg+xml</dc:format>
        <dc:type
           rdf:resource="http://purl.org/dc/dcmitype/StillImage" />
        <dc:title></dc:title>
      </cc:Work>
    </rdf:RDF>
  </metadata>
  <g
     inkscape:label="Layer 1"
     inkscape:groupmode="layer"
     id="layer1">
    <path
       d="m 58.880443,149.87301 c 0.931655,1.32466 -1.009998,9.84996 -1.746324,9.06936 -0.290584,-0.30723 -0.553019,-0.49966 -0.7612,-0.63011 -0.08276,-0.0514 0.722438,-3.58198 0.919273,-5.09053 0.187713,-1.44364 0.209313,-3.37178 -0.05161,-3.41328 -0.259314,-0.0416 -0.731462,1.82394 -0.952023,3.05472 -0.470631,2.63581 -0.457786,5.08043 -0.723478,4.95976 -0.248902,-0.11594 -0.76745,-0.35214 -0.936398,-0.42525 -0.178525,-0.0764 0.521778,-3.22644 0.729842,-4.75482 0.126486,-0.93103 0.220442,-3.6566 0.0092,-3.70108 -0.217325,-0.0464 -0.757961,1.89213 -0.912791,3.36885 -0.236178,2.24244 -0.224941,4.88689 -0.431417,4.78101 -0.337776,-0.17034 -0.948897,-0.33732 -1.155343,-0.35722 -0.223232,-0.0222 0.332923,-3.25951 0.464268,-4.73449 0.186042,-2.11225 0.06284,-4.01735 -0.124858,-4.03679 -0.186084,-0.0224 -0.581493,1.62056 -0.755071,3.66462 -0.126488,1.48647 -0.251789,4.90011 -0.492272,4.89669 -0.286165,-7.2e-4 -0.744303,-0.11369 -0.892775,-0.15363 -0.248551,-0.0641 0.230191,-3.54399 0.336074,-5.16639 0.129727,-1.95344 0.04244,-4.03381 -0.145254,-4.04864 -0.186044,-0.0144 -0.561008,1.90865 -0.762708,3.76582 -0.173675,1.60919 -0.134352,5.27047 -0.404911,5.27393 -0.423893,0.004 -0.756803,-0.142 -1.144114,-0.13733 -0.236177,0.002 0.162469,-3.79709 0.231314,-5.59308 0.07488,-1.95508 -0.05012,-3.54403 -0.215803,-3.55072 -0.167217,-0.0103 -0.539366,1.58245 -0.637844,3.58031 -0.08761,1.79087 0.05603,5.52207 -0.208046,5.50385 -0.564135,-0.0416 -0.795571,-0.0546 -1.278583,-0.002 -0.245229,0.0222 -0.0049,-2.32357 0.110941,-4.80403 0.09721,-2.08728 -0.100122,-3.66976 -0.287346,-3.6668 -0.186186,0.002 -0.530342,1.85735 -0.56471,3.63852 -0.03587,1.8441 0.157968,4.78431 -0.124857,4.81062 -0.523864,0.0466 -0.778332,0.0277 -1.19897,0.0797 -0.229699,0.0277 0.05323,-2.38317 0.0049,-4.10618 -0.04871,-1.69183 -0.239197,-3.48979 -0.406532,-3.49613 -0.185982,-0.0103 -0.45651,2.07865 -0.465764,3.46443 -0.01223,1.86578 0.17498,4.24381 -0.02362,4.26709 -0.492153,0.0572 -0.936403,0.0774 -1.269323,0.16667 -0.198472,0.0545 -0.0057,-2.38473 -0.01711,-3.9031 -0.01568,-2.08198 -0.301212,-3.49442 -0.470166,-3.4927 -0.14407,7.1e-4 -0.337778,1.85905 -0.295661,3.85019 0.03105,1.43217 0.144052,3.70108 -0.02494,3.75225 -0.308037,0.0945 -0.833179,0.27811 -1.103731,0.34242 -0.167218,0.0416 -0.24847,-1.66857 -0.253323,-3.56393 -0.0049,-1.49032 -0.307598,-3.1355 -0.528145,-3.1355 -0.239324,0 -0.353301,1.82566 -0.251704,3.23968 0.09513,1.33945 0.306419,3.80341 0.182804,3.95926 0.939524,-0.54735 3.706374,-1.16931 6.90937,-1.20062 -5.152283,0.79711 -2.437046,2.64269 0.11088,3.51437 3.865606,1.32135 11.108016,1.01515 11.64426,-0.4733 0.412522,-1.14778 2.177375,-7.27985 2.689897,-9.03939 -1.868057,-2.78656 -7.360792,-4.83404 -12.600681,-5.01436 4.748889,1.23043 8.891531,2.71888 10.27646,4.68847 z"
       style="fill:#abece3;fill-rule:evenodd;stroke-width:1.19025"
       id="path912" />
    <path
       d="m 46.660404,134.76875 c -0.717463,2.81273 -0.992414,3.65956 3.295108,4.52794 2.781082,0.56392 6.231027,-0.66003 10.01227,1.09815 0.381424,-2.24088 -4.862989,-2.3866 -8.103593,-2.37335 -3.240606,0.0142 -5.350631,-0.44004 -5.203785,-3.25274 z"
       style="fill:#f3a6c7;fill-rule:evenodd;stroke-width:1.19025"
       id="path914" />
    <path
       d="m 52.140756,142.69672 c -4.126551,-1.37926 -10.441701,-0.38174 -11.743895,-1.37926 -1.911915,0.43032 -3.684387,1.70015 -4.376967,4.28016 1.183229,-1.86538 3.570289,-2.7354 5.747663,-2.58001 4.098898,0.29429 6.135787,-0.46781 10.373199,-0.32113 z"
       style="fill:#f3a6c7;fill-rule:evenodd;stroke-width:1.19025"
       id="path916" />
    <path
       d="m 62.251501,145.56749 c -1.02076,-0.89441 -2.977572,-1.67013 -5.941722,-2.34324 1.786823,-0.0465 4.308346,0.32113 6.081048,1.02535 -0.02843,0.35074 -0.08282,0.87813 -0.139344,1.31789 z"
       style="fill:#f3a6c7;fill-rule:evenodd;stroke-width:1.19025"
       id="path918" />
    <path
       d="m 37.304727,149.0803 c 0.0036,-0.004 0.0011,-0.0143 -0.0011,-0.0224 -0.02973,-0.19703 0.06237,-0.35583 0.15322,-0.51098 0.217327,-0.36924 0.506621,-0.66859 0.822415,-0.93951 0.917543,-0.78572 1.966423,-1.31169 3.072928,-1.71851 1.049113,-0.3836 2.129238,-0.63317 3.228108,-0.79884 0.940797,-0.1406 1.8853,-0.21145 2.835704,-0.23078 0.518999,-0.0102 1.038004,-0.002 1.556655,0.0102 0.995998,0.0277 1.983544,0.1355 2.962415,0.32113 1.508286,0.28457 2.974449,0.72744 4.397105,1.33287 1.195726,0.50924 2.344706,1.11467 3.392199,1.91817 0.473519,0.36094 0.920428,0.75622 1.25509,1.27004 0.09837,0.14894 0.195681,0.30122 0.225292,0.48824 0.01528,0.0277 0.0106,0.0464 -0.02178,0.0514 -0.03281,-0.0102 -0.05012,-0.0369 -0.06884,-0.0662 -0.187796,-0.31602 -0.420657,-0.59074 -0.695471,-0.82406 -2.363452,-2.00584 -6.182311,-3.63789 -10.778451,-3.79841 -5.855163,-0.2055 -9.503913,0.84169 -12.136294,3.33866 -0.05013,0.0502 -0.08888,0.11104 -0.132825,0.16891 0.113978,0.10902 0.165587,0.18847 0.242562,0.40024 0.229698,0.62832 0.36568,1.28146 0.501644,1.93486 0.202995,0.97573 0.367386,1.95969 0.51437,2.94875 0.120437,0.81368 0.23609,1.62902 0.288967,2.45086 0.0057,0.10901 0.02494,0.22162 -0.02495,0.33916 -0.05161,-0.0495 -0.07206,-0.10411 -0.09085,-0.15872 -0.05163,-0.14261 -0.102751,-0.2864 -0.146964,-0.43122 -0.370405,-1.23542 -0.664225,-2.49239 -0.933042,-3.75621 -0.205047,-0.95727 -0.403382,-1.91661 -0.486367,-2.8954 -0.02319,-0.27484 -0.086,-0.56222 0.06885,-0.82381 z"
       style="fill:#6ed0cc;fill-rule:evenodd;stroke-width:1.19025"
       id="path924" />
    <path
       d="m 39.341734,157.87031 c 1.544159,2.29705 3.632775,3.14893 8.692951,3.52063 4.428231,0.32621 8.930178,-1.0203 9.508431,-1.42896 0.60984,-0.4294 0.887909,-0.48936 0.309784,0.0416 -0.712716,0.64813 -3.695614,1.97792 -8.775924,1.98468 -0.956768,7.3e-4 -1.911571,-0.0416 -2.865094,-0.13406 -1.05849,-0.10248 -2.108985,-0.26144 -3.137386,-0.55887 -0.834798,-0.24293 -1.628632,-0.5803 -2.361829,-1.07146 -0.08606,-0.0666 -0.173677,-0.1308 -0.261282,-0.19539 -0.05926,-0.0513 -0.117197,-0.10086 -0.174878,-0.1522 -0.631481,-0.55547 -1.108475,-1.24009 -1.312952,-2.08043 -0.104829,-0.42987 -0.103219,-0.63979 0.378192,0.0764 z"
       style="fill:#6ed0cc;fill-rule:evenodd;stroke-width:1.19025"
       id="path926" />
    <path
       d="m 46.439845,135.67013 c -0.190343,0.31745 -0.288835,0.66628 -0.32483,1.03845 -0.07961,0.82186 0.265697,1.42381 0.88317,1.87511 0.504998,0.37062 1.080012,0.56402 1.671104,0.71115 0.980024,0.24292 1.978797,0.3211 2.98243,0.35906 1.020529,0.0416 2.042913,0.0102 3.063788,0.0324 1.47415,0.0324 2.927701,0.22113 4.325473,0.75406 0.698716,0.26791 1.351718,0.62365 1.91643,1.14442 0.711095,0.65817 1.118889,1.49004 1.254861,2.47415 0.03105,0.2184 0.05497,0.43633 0.08935,0.65312 0.0106,0.0662 0.0011,0.1787 0.07637,0.18358 0.08445,0.004 0.09407,-0.10942 0.111226,-0.17869 0.08297,-0.32946 0.100123,-0.66504 0.07327,-1.00394 -0.107642,-1.42573 -0.834685,-2.44104 -1.925686,-3.20351 -0.837926,-0.58547 -1.775834,-0.92296 -2.749493,-1.15105 -0.891155,-0.20674 -1.794807,-0.31094 -2.70598,-0.33268 -1.202094,-0.0277 -2.40268,0.0528 -3.604774,0.0416 -0.966029,-0.0102 -1.93043,-0.0464 -2.882455,-0.24144 -0.490647,-0.0994 -0.970769,-0.23501 -1.412932,-0.49118 -0.787934,-0.45854 -1.092969,-1.14308 -0.934782,-2.08076 0.03281,-0.19478 0.09686,-0.38359 0.09352,-0.58337 z"
       style="fill:#dc3a5e;fill-rule:evenodd;stroke-width:1.19025"
       id="path928" />
    <path
       d="m 49.955512,142.24719 c -0.31591,-0.16382 -0.642357,-0.24194 -0.972042,-0.30632 -0.852042,-0.16666 -1.714848,-0.21146 -2.577998,-0.2412 -1.18647,-0.0416 -2.374097,-0.0277 -3.557442,-0.14568 -0.533118,-0.0514 -1.063232,-0.13081 -1.574247,-0.31744 -0.157722,-0.0564 -0.306634,-0.13081 -0.450262,-0.22013 -0.365681,-0.22633 -0.542263,-0.56386 -0.567371,-1.0084 -0.04852,-0.93264 0.251702,-1.73488 0.798691,-2.44609 0.637845,-0.83199 1.455401,-1.4171 2.344939,-1.90518 0.44066,-0.24296 0.903192,-0.43818 1.358196,-0.6517 0.07686,-0.037 0.210859,-0.0629 0.190934,-0.15871 -0.02362,-0.10412 -0.158191,-0.0745 -0.245667,-0.0695 -0.540638,0.0277 -1.051655,0.19172 -1.549131,0.40857 -1.106512,0.48314 -2.07566,1.16944 -2.797981,2.20112 -0.484634,0.6931 -0.753562,1.47035 -0.76444,2.34044 -0.01712,1.10625 0.401763,1.74764 1.452391,2.12326 0.720584,0.2582 1.473803,0.30772 2.22725,0.32945 1.322675,0.0416 2.641988,-0.0502 3.962926,-0.0679 0.883171,-0.0102 1.76472,0.0224 2.640019,0.1575 0.02178,0.002 0.04401,0.0144 0.08121,-0.0224 z"
       style="fill:#dc3a5e;fill-rule:evenodd;stroke-width:1.19025"
       id="path930" />
    <path
       d="m 59.964539,139.8589 c 0.02226,-0.40166 -0.04528,-0.75577 -0.149979,-1.10115 -0.32343,-1.0602 -1.006522,-1.80444 -1.892932,-2.35693 -0.795805,-0.4945 -1.666247,-0.78244 -2.565156,-0.97882 -1.137982,-0.25128 -2.291704,-0.35213 -3.453066,-0.39055 -1.192834,-0.037 -2.383814,-0.0102 -3.575029,0.0416 -0.16571,0.004 -0.332923,0.0142 -0.4954,0.0546 -0.04244,0.0142 -0.09847,0.0224 -0.100122,0.0827 -0.0011,0.0495 0.04024,0.0741 0.07811,0.0939 0.226349,0.12063 0.472135,0.16382 0.71908,0.20171 0.847066,0.12714 1.702235,0.14528 2.555899,0.18195 1.344195,0.0576 2.686654,0.11105 4.017308,0.34749 0.97193,0.17156 1.922448,0.42662 2.79312,0.93912 0.974124,0.57576 1.625854,1.42249 1.93529,2.56006 0.028,0.0994 0.04675,0.20675 0.132825,0.32251 z"
       style="fill:#dc3a5e;fill-rule:evenodd;stroke-width:1.19025"
       id="path932" />
    <path
       d="m 36.993786,150.01296 c -0.282797,-0.35352 -0.461258,-0.78197 -0.594216,-1.23028 -0.338956,-1.14947 -0.270072,-2.29563 0.06446,-3.43151 0.256078,-0.86993 0.668624,-1.64896 1.272107,-2.30565 0.389386,-0.42156 0.853661,-0.72735 1.348935,-0.98554 0.05012,-0.0277 0.09851,-0.0546 0.145701,-0.086 0.04689,-0.0324 0.10159,-0.0641 0.08297,-0.13569 -0.01568,-0.0615 -0.07206,-0.0662 -0.123696,-0.0764 -0.195335,-0.0324 -0.386279,-0.004 -0.575126,0.0482 -0.713061,0.19661 -1.269325,0.64505 -1.730699,1.23235 -0.804712,1.02667 -1.200588,2.22726 -1.267705,3.55208 -0.04837,0.97253 0.112836,1.89699 0.558231,2.75691 0.201712,0.39054 0.448528,0.74092 0.770692,1.01222 0.379806,0.31743 0.338956,0.0142 0.04837,-0.35072 z"
       style="fill:#dc3a5e;fill-rule:evenodd;stroke-width:1.19025"
       id="path934" />
    <path
       d="m 60.350698,144.47328 c 0.05926,0.0774 0.128097,0.10594 0.192095,0.1416 0.500253,0.28645 0.984768,0.59578 1.405408,1.00893 1.178487,1.15963 1.477392,2.8413 0.775554,4.37933 -0.24567,0.53769 -0.592717,0.99876 -0.963247,1.44537 -0.08727,0.10574 -0.171618,0.21692 -0.251224,0.32897 -0.03761,0.0528 -0.08611,0.12124 -0.03936,0.18684 0.04536,0.0629 0.122087,0.0324 0.182947,0.0142 0.279693,-0.0874 0.515877,-0.25958 0.731459,-0.45992 0.976788,-0.9128 1.453899,-2.05887 1.347438,-3.43636 -0.09849,-1.28173 -0.714336,-2.25746 -1.716231,-2.96545 -0.437886,-0.30958 -0.914416,-0.52569 -1.430412,-0.63835 -0.07198,-0.0142 -0.143582,-0.0277 -0.234425,-0.004 z"
       style="fill:#dc3a5e;fill-rule:evenodd;stroke-width:1.19025"
       id="path936" />
    <path
       d="m 45.777233,127.31832 c 0.436271,-0.60714 1.216097,-0.69146 1.722713,-0.1575 0.375041,0.39656 0.589012,0.88662 0.756342,1.40569 0.144071,0.45345 0.201711,0.92972 0.297279,1.39408 0.0106,0.0528 -0.0057,0.1308 0.05288,0.15097 0.08121,0.0277 0.103221,-0.0579 0.136064,-0.11104 0.121986,-0.20172 0.240946,-0.40485 0.361396,-0.60708 0.41694,-0.76077 0.914416,-1.43853 1.681867,-1.84892 0.778441,-0.41459 1.739489,0.0224 1.935172,0.91636 0.293821,1.3429 -0.02843,2.58494 -0.651732,3.74079 -0.728795,1.35269 -1.818065,2.30527 -3.14062,2.96873 -0.268936,0.13569 -0.551867,0.18052 -0.841166,0.19539 -0.157722,0.0102 -0.315689,-0.0324 -0.381428,-0.21145 -0.06075,-0.15872 0.0082,-0.28779 0.114121,-0.41179 0.23005,-0.27256 0.501758,-0.4929 0.76467,-0.72431 1.054783,-0.92604 1.977299,-1.96162 2.44793,-3.35862 0.215569,-0.64017 0.390565,-1.29347 0.345297,-1.98467 -0.02319,-0.37713 -0.115587,-0.43124 -0.41414,-0.20824 -1.1381,0.85343 -1.922793,1.99603 -2.429063,3.36197 -0.04718,0.12592 -0.07359,0.27808 -0.244181,0.24342 -0.170437,-0.0324 -0.228082,-0.17665 -0.217187,-0.34564 0.0049,-0.0945 0.02669,-0.19213 0.06399,-0.27624 0.156563,-0.36879 0.132825,-0.74265 0.05477,-1.12315 -0.04024,-0.19662 -0.06874,-0.39515 -0.09823,-0.5919 -0.128098,-0.85825 -0.356626,-1.65708 -1.038118,-2.23248 -0.173331,-0.14568 -0.252973,-0.11919 -0.36415,0.0514 -0.156092,0.24146 -0.250172,0.49918 -0.276457,0.79556 -0.11412,1.27987 0.218802,2.4822 0.564129,3.68126 0.112491,0.39008 0.282931,0.76235 0.417419,1.14593 0.04527,0.13081 0.128098,0.28269 0.0082,0.40533 -0.134495,0.13245 -0.31254,0.14712 -0.483014,0.0823 -0.178096,-0.0662 -0.298457,-0.21515 -0.390566,-0.38172 -0.181338,-0.32899 -0.386148,-0.64359 -0.550363,-0.98554 -0.446908,-0.93444 -0.732966,-1.91365 -0.711441,-2.96696 0.01446,-0.70793 0.07525,-1.40731 0.50824,-2.01104 z"
       style="fill:#dc3a5e;fill-rule:evenodd;stroke-width:1.19025"
       id="path938" />
    <text
       xml:space="preserve"
       style="font-style:normal;font-weight:normal;font-size:19.7016px;line-height:1.15;font-family:sans-serif;fill:#dc3a5e;fill-opacity:1;stroke:none;stroke-width:0.435949"
       x="81.110443"
       y="155.90564"
       id="text1367"
       transform="scale(0.97879644,1.0216629)"><tspan
         sodipodi:role="line"
         id="tspan1365"
         x="81.110443"
         y="155.90564"
         style="font-style:normal;font-variant:normal;font-weight:normal;font-stretch:normal;font-size:19.7016px;font-family:Frunch;-inkscape-font-specification:Frunch;fill:#dc3a5e;fill-opacity:1;stroke-width:0.435949">Tatiana Verza </tspan></text>
    <text
       xml:space="preserve"
       style="font-style:normal;font-weight:normal;font-size:10.5833px;line-height:1.25;font-family:Frunch;fill:#000000;fill-opacity:1;stroke:none;stroke-width:0.264583;-inkscape-font-specification:Frunch;font-stretch:normal;font-variant:normal;"
       x="92.604164"
       y="159.50595"
       id="text2194"><tspan
         sodipodi:role="line"
         id="tspan2192"
         x="92.604164"
         y="159.50595"
         style="font-style:normal;font-variant:normal;font-weight:normal;font-stretch:normal;font-family:Frunch;-inkscape-font-specification:Frunch;stroke-width:0.264583;" /></text>
    <text
       xml:space="preserve"
       style="font-style:normal;font-weight:normal;font-size:8.68274px;line-height:1.25;font-family:sans-serif;fill:#000000;fill-opacity:1;stroke:none;stroke-width:0.217068"
       x="28.046291"
       y="170.36577"
       id="text2198"><tspan
         sodipodi:role="line"
         id="tspan2196"
         x="28.046291"
         y="170.36577"
         style="font-style:normal;font-variant:normal;font-weight:normal;font-stretch:normal;font-family:Frunch;-inkscape-font-specification:Frunch;fill:#6ed0cc;fill-opacity:1;stroke-width:0.217068">Confeitaria</tspan></text>
  </g>
</svg>
