<svg version="1.2" xmlns="http://www.w3.org/2000/svg" viewBox="0 0 184 48" width="184" height="48">
	<title>logo-svg</title>
	<style>
		tspan { white-space:pre } 
		.s0 { fill: #abece3 } 
		.s1 { fill: #f3a6c7 } 
		.s2 { fill: #6ed0cc } 
		.s3 { fill: #dc3a5e } 
		.t4 { font-size: 20px;fill: #dc3a5e;font-family: "Frunch" } 
		.t5 { font-size: 9px;fill: #6ed0cc;font-family: "Frunch" } 
	</style>
	<g id="layer1">
		<path id="path912" fill-rule="evenodd" class="s0" d="m32.9 25.9c0.9 1.3-1 9.8-1.8 9q-0.4-0.4-0.7-0.6c-0.1 0 0.7-3.6 0.9-5.1 0.2-1.4 0.2-3.4-0.1-3.4-0.2 0-0.7 1.8-0.9 3.1-0.5 2.6-0.5 5-0.7 4.9-0.3-0.1-0.8-0.3-1-0.4-0.1-0.1 0.6-3.2 0.8-4.8 0.1-0.9 0.2-3.6 0-3.7-0.2 0-0.8 1.9-0.9 3.4-0.3 2.3-0.3 4.9-0.5 4.8-0.3-0.2-0.9-0.3-1.1-0.4-0.3 0 0.3-3.2 0.4-4.7 0.2-2.1 0.1-4-0.1-4-0.2-0.1-0.6 1.6-0.7 3.6-0.2 1.5-0.3 4.9-0.5 4.9-0.3 0-0.8-0.1-0.9-0.1-0.3-0.1 0.2-3.6 0.3-5.2 0.1-1.9 0-4-0.1-4-0.2-0.1-0.6 1.9-0.8 3.7-0.2 1.6-0.1 5.3-0.4 5.3-0.4 0-0.8-0.1-1.2-0.1-0.2 0 0.2-3.8 0.3-5.6 0.1-2-0.1-3.6-0.2-3.6-0.2 0-0.6 1.6-0.7 3.6-0.1 1.8 0.1 5.5-0.2 5.5-0.5 0-0.8-0.1-1.3 0-0.2 0 0-2.3 0.1-4.8 0.1-2.1-0.1-3.7-0.2-3.7-0.2 0-0.6 1.9-0.6 3.7 0 1.8 0.2 4.7-0.1 4.8-0.6 0-0.8 0-1.2 0.1-0.3 0 0-2.4 0-4.2-0.1-1.6-0.3-3.4-0.4-3.4-0.2-0.1-0.5 2-0.5 3.4 0 1.9 0.2 4.3 0 4.3-0.5 0-1 0.1-1.3 0.2-0.2 0 0-2.4 0-4 0-2-0.3-3.4-0.5-3.4-0.1 0-0.3 1.8-0.3 3.8 0.1 1.4 0.2 3.7 0 3.8-0.3 0.1-0.8 0.2-1.1 0.3-0.2 0-0.2-1.7-0.3-3.6 0-1.5-0.3-3.1-0.5-3.1-0.2 0-0.3 1.8-0.2 3.2 0.1 1.4 0.3 3.8 0.2 4 0.9-0.5 3.7-1.2 6.9-1.2-5.2 0.8-2.5 2.6 0.1 3.5 3.8 1.3 11.1 1 11.6-0.5 0.4-1.1 2.2-7.2 2.7-9-1.9-2.8-7.4-4.8-12.6-5 4.8 1.2 8.9 2.7 10.3 4.7z"/>
		<path id="path914" fill-rule="evenodd" class="s1" d="m20.7 10.8c-0.8 2.8-1 3.6 3.3 4.5 2.7 0.6 6.2-0.7 10 1.1 0.3-2.2-4.9-2.4-8.1-2.4-3.3 0-5.4-0.4-5.2-3.2z"/>
		<path id="path916" fill-rule="evenodd" class="s1" d="m26.1 18.7c-4.1-1.4-10.4-0.4-11.7-1.4-1.9 0.4-3.7 1.7-4.4 4.3 1.2-1.9 3.6-2.7 5.8-2.6 4.1 0.3 6.1-0.5 10.3-0.3z"/>
		<path id="path918" fill-rule="evenodd" class="s1" d="m36.3 21.6c-1.1-0.9-3-1.7-6-2.4 1.8 0 4.3 0.3 6.1 1 0 0.4-0.1 0.9-0.1 1.4z"/>
		<path id="path924" fill-rule="evenodd" class="s2" d="m11.3 25.1q0 0 0 0c0-0.2 0.1-0.4 0.2-0.6q0.3-0.5 0.8-0.9c0.9-0.8 1.9-1.3 3.1-1.7q1.5-0.6 3.2-0.8 1.4-0.2 2.8-0.2 0.8-0.1 1.6 0 1.5 0 2.9 0.3 2.3 0.4 4.4 1.3c1.2 0.5 2.4 1.1 3.4 1.9 0.5 0.4 0.9 0.8 1.3 1.3 0.1 0.2 0.2 0.3 0.2 0.5q0 0 0 0.1-0.1-0.1-0.1-0.1-0.3-0.5-0.7-0.8c-2.3-2-6.2-3.7-10.8-3.8-5.8-0.2-9.5 0.8-12.1 3.3q-0.1 0.1-0.1 0.2c0.1 0.1 0.1 0.2 0.2 0.4 0.2 0.6 0.4 1.3 0.5 1.9q0.3 1.5 0.5 3 0.2 1.2 0.3 2.4c0 0.1 0 0.2 0 0.3q-0.1 0-0.1-0.1-0.1-0.2-0.1-0.4-0.6-1.9-1-3.8c-0.2-1-0.4-1.9-0.5-2.9 0-0.3 0-0.6 0.1-0.8z"/>
		<path id="path926" fill-rule="evenodd" class="s2" d="m13.3 33.9c1.6 2.3 3.7 3.1 8.7 3.5 4.5 0.3 9-1 9.5-1.4 0.7-0.5 0.9-0.5 0.4 0-0.8 0.7-3.7 2-8.8 2q-1.5 0-2.9-0.1c-1-0.1-2.1-0.3-3.1-0.6q-1.3-0.4-2.4-1.1-0.1-0.1-0.2-0.2-0.1 0-0.2-0.1c-0.7-0.6-1.1-1.3-1.3-2.1-0.1-0.4-0.1-0.6 0.3 0.1z"/>
		<path id="path928" fill-rule="evenodd" class="s3" d="m20.4 11.7q-0.2 0.4-0.3 1c-0.1 0.8 0.3 1.4 0.9 1.9 0.5 0.4 1.1 0.5 1.7 0.7 0.9 0.2 1.9 0.3 3 0.4 1 0 2 0 3 0 1.5 0 2.9 0.2 4.3 0.7 0.7 0.3 1.4 0.7 2 1.2q1 1 1.2 2.5 0.1 0.3 0.1 0.6c0 0.1 0 0.2 0.1 0.2 0.1 0 0.1-0.1 0.1-0.2q0.1-0.5 0.1-1c-0.1-1.4-0.9-2.4-2-3.2-0.8-0.6-1.7-0.9-2.7-1.1q-1.4-0.3-2.7-0.4c-1.2 0-2.4 0.1-3.6 0.1-1 0-2-0.1-2.9-0.3-0.5-0.1-1-0.2-1.4-0.5q-1.2-0.6-1-2c0.1-0.2 0.1-0.4 0.1-0.6z"/>
		<path id="path930" fill-rule="evenodd" class="s3" d="m24 18.2c-0.4-0.1-0.7-0.2-1-0.3-0.9-0.1-1.7-0.2-2.6-0.2-1.2 0-2.4 0-3.6-0.1-0.5-0.1-1-0.2-1.5-0.4q-0.3 0-0.5-0.2-0.5-0.3-0.5-1c-0.1-0.9 0.2-1.7 0.8-2.4 0.6-0.9 1.4-1.5 2.3-1.9 0.4-0.3 0.9-0.5 1.4-0.7 0 0 0.2-0.1 0.1-0.2 0-0.1-0.1 0-0.2 0-0.5 0-1 0.2-1.5 0.4-1.2 0.5-2.1 1.2-2.8 2.2q-0.8 1-0.8 2.3c0 1.1 0.4 1.8 1.4 2.2 0.8 0.2 1.5 0.3 2.3 0.3 1.3 0 2.6-0.1 3.9-0.1q1.4 0 2.7 0.2 0 0 0.1-0.1z"/>
		<path id="path932" fill-rule="evenodd" class="s3" d="m34 15.9c0-0.4-0.1-0.8-0.2-1.1-0.3-1.1-1-1.8-1.9-2.4-0.8-0.5-1.6-0.8-2.5-1-1.2-0.2-2.3-0.3-3.5-0.4q-1.8 0-3.6 0.1-0.2 0-0.5 0c0 0-0.1 0.1-0.1 0.1q0 0.1 0.1 0.1c0.2 0.1 0.5 0.2 0.7 0.2 0.9 0.1 1.7 0.2 2.6 0.2 1.3 0 2.7 0.1 4 0.3 1 0.2 1.9 0.5 2.8 1q1.5 0.8 1.9 2.5c0.1 0.1 0.1 0.2 0.2 0.4z"/>
		<path id="path934" fill-rule="evenodd" class="s3" d="m11 26c-0.3-0.3-0.5-0.8-0.6-1.2-0.3-1.2-0.3-2.3 0.1-3.4q0.3-1.4 1.2-2.4c0.4-0.4 0.9-0.7 1.4-0.9q0.1-0.1 0.1-0.1c0.1-0.1 0.1-0.1 0.1-0.2 0 0-0.1 0-0.1 0q-0.3-0.1-0.6 0c-0.7 0.2-1.3 0.7-1.7 1.2-0.8 1.1-1.2 2.3-1.3 3.6 0 1 0.1 1.9 0.6 2.8q0.3 0.5 0.7 1c0.4 0.3 0.4 0 0.1-0.4z"/>
		<path id="path936" fill-rule="evenodd" class="s3" d="m34.4 20.5q0 0.1 0.1 0.1c0.5 0.3 1 0.6 1.4 1 1.2 1.2 1.5 2.9 0.8 4.4-0.2 0.5-0.6 1-0.9 1.4q-0.2 0.2-0.3 0.4c0 0-0.1 0.1 0 0.2 0 0 0.1 0 0.2 0q0.4-0.2 0.7-0.5c1-0.9 1.4-2 1.3-3.4-0.1-1.3-0.7-2.3-1.7-3q-0.6-0.5-1.4-0.6-0.1-0.1-0.2 0z"/>
		<path id="path938" fill-rule="evenodd" class="s3" d="m19.8 3.3c0.4-0.6 1.2-0.7 1.7-0.1 0.4 0.4 0.6 0.8 0.8 1.4 0.1 0.4 0.2 0.9 0.3 1.4 0 0-0.1 0.1 0 0.1 0.1 0 0.1 0 0.1-0.1q0.2-0.3 0.4-0.6c0.4-0.8 0.9-1.4 1.7-1.9 0.8-0.4 1.7 0.1 1.9 1 0.3 1.3 0 2.5-0.6 3.7-0.8 1.4-1.8 2.3-3.2 3q-0.4 0.2-0.8 0.2c-0.2 0-0.3-0.1-0.4-0.2-0.1-0.2 0-0.3 0.1-0.5 0.3-0.2 0.5-0.5 0.8-0.7 1-0.9 2-1.9 2.4-3.3 0.2-0.7 0.4-1.3 0.4-2 0-0.4-0.1-0.5-0.4-0.2-1.2 0.8-2 2-2.5 3.3 0 0.2 0 0.3-0.2 0.3-0.2-0.1-0.2-0.2-0.2-0.4q0-0.1 0-0.2c0.2-0.4 0.2-0.8 0.1-1.2q-0.1-0.3-0.1-0.6c-0.1-0.8-0.4-1.6-1-2.2-0.2-0.1-0.3-0.1-0.4 0.1q-0.2 0.3-0.3 0.7c-0.1 1.3 0.2 2.5 0.6 3.7 0.1 0.4 0.3 0.8 0.4 1.2 0 0.1 0.1 0.3 0 0.4-0.1 0.1-0.3 0.1-0.5 0.1-0.2-0.1-0.3-0.3-0.4-0.4-0.1-0.3-0.4-0.7-0.5-1-0.5-0.9-0.8-1.9-0.7-3 0-0.7 0-1.4 0.5-2z"/>
		<text id="tspan1365" style="transform: matrix(.979,0,0,1.022,53.391,35.283)" >
			<tspan x="0" y="0" class="t4">Tatiana Verza 
</tspan>
		</text>
		<text id="tspan2196" style="transform: matrix(1,0,0,1,2.046,46.366)" >
			<tspan x="0" y="0" class="t5">Confeitaria
</tspan>
		</text>
	</g>
</svg>