<svg width="20" height="23" viewBox="0 0 20 23" fill="none" xmlns="http://www.w3.org/2000/svg">
<path d="M19.9961 21.3401L18.3241 5.41707C18.3071 5.25626 18.2312 5.10744 18.111 4.99925C17.9908 4.89106 17.8348 4.83116 17.6731 4.83107H14.5301V4.11407C14.5066 3.05553 14.0696 2.04826 13.3126 1.30794C12.5556 0.567616 11.5389 0.153076 10.4801 0.153076C9.4213 0.153076 8.40458 0.567616 7.64762 1.30794C6.89066 2.04826 6.45363 3.05553 6.43011 4.11407V4.83107H3.28511C3.1234 4.83116 2.96744 4.89106 2.84725 4.99925C2.72706 5.10744 2.65114 5.25626 2.63411 5.41707L0.959106 21.3401C0.949558 21.4315 0.959379 21.524 0.987929 21.6114C1.01648 21.6988 1.06312 21.7793 1.12481 21.8475C1.18651 21.9157 1.26187 21.9701 1.346 22.0073C1.43013 22.0444 1.52114 22.0634 1.61311 22.0631H19.3451C19.4368 22.063 19.5275 22.0437 19.6113 22.0063C19.695 21.969 19.77 21.9145 19.8314 21.8464C19.8928 21.7782 19.9391 21.6979 19.9675 21.6107C19.9959 21.5235 20.0056 21.4313 19.9961 21.3401ZM7.73811 4.11407C7.73811 3.38698 8.02694 2.68967 8.54107 2.17554C9.0552 1.66141 9.75252 1.37257 10.4796 1.37257C11.2067 1.37257 11.904 1.66141 12.4181 2.17554C12.9323 2.68967 13.2211 3.38698 13.2211 4.11407V4.83107H7.73811V4.11407ZM2.33811 20.7541L3.87511 6.14007H6.42811V7.58307C6.42811 7.75679 6.49712 7.92339 6.61995 8.04623C6.74279 8.16906 6.90939 8.23807 7.08311 8.23807C7.25682 8.23807 7.42343 8.16906 7.54626 8.04623C7.6691 7.92339 7.73811 7.75679 7.73811 7.58307V6.14007H13.2211V7.58307C13.2211 7.75679 13.2901 7.92339 13.413 8.04623C13.5358 8.16906 13.7024 8.23807 13.8761 8.23807C14.0498 8.23807 14.2164 8.16906 14.3393 8.04623C14.4621 7.92339 14.5311 7.75679 14.5311 7.58307V6.14007H17.0841L18.6191 20.7541H2.33811Z" fill="#222222"/>
</svg>
